<svg id="Layer_1" data-name="Layer 1" xmlns="http://www.w3.org/2000/svg" viewBox="0 0 1920 465.59"><defs><style>.cls-1{fill:#29826b;}.cls-2{fill:#78c4a2;}.cls-3{fill:#021b15;}</style></defs><title>threekit_logo_full-color</title><path class="cls-1" d="M300.87,344l-115.1-57.54a52.3,52.3,0,0,1-28.9-46.77V117.47l-52.29-27V265.84a52.29,52.29,0,0,0,28.9,46.77l163.26,81.63Z"/><path class="cls-1" d="M81.19,338.76A52.3,52.3,0,0,1,52.29,292V88.92L37.84,81.69A26.15,26.15,0,0,0,0,105.07V318.13A52.29,52.29,0,0,0,28.9,364.9l194.71,97.36a26.15,26.15,0,0,0,37.84-23.39v-10Z"/><path class="cls-2" d="M389.42,100.61,194.71,3.26a25.66,25.66,0,0,0-23.12.07V3.12L118.69,29.57l.17.11h0a25.72,25.72,0,0,1,23.56-.28l194.71,97.35A52.31,52.31,0,0,1,366,173.53V386.58a25.79,25.79,0,0,1-15,23.42h0v.21L404,383.75l-.18-.11a25.81,25.81,0,0,0,14.49-23.21v-213A52.28,52.28,0,0,0,389.42,100.61Z"/><path class="cls-2" d="M284.84,152.9,90.13,55.55A25.66,25.66,0,0,0,67,55.62v-.21L14.11,81.86l.17.11h0a25.72,25.72,0,0,1,23.56-.28L232.55,179a52.31,52.31,0,0,1,28.9,46.78V438.87a25.79,25.79,0,0,1-15,23.42h0v.22L299.43,436l-.18-.11a25.81,25.81,0,0,0,14.49-23.21V199.67A52.28,52.28,0,0,0,284.84,152.9Z"/><path class="cls-3" d="M583.68,203.31h-36V164.85h36V107h44.13v57.89H677.6v38.46H627.81V311.4q0,12.15,4.85,17.41t16.6,5.25h32.79v38.06H640q-29.15,0-42.71-13.76t-13.56-42.51Z"/><path class="cls-3" d="M871.31,185.09q23.28,22.68,23.28,72.87V372.12H850.87V260.39q0-29.55-12.75-44.94t-37-15.38q-25.91,0-40.69,18t-14.77,49.19V372.12H701.89V88.74h43.72V195.21q23.48-32.79,65.18-32.79Q848,162.42,871.31,185.09Z"/><path class="cls-3" d="M1044.77,164.85v40.89h-19.43q-27.12,0-39.27,17.61t-12.14,45.14V372.12H930.2V164.85h38.87l4.86,31.58A64.53,64.53,0,0,1,997,173.15q14.18-8.29,38-8.3Z"/><path class="cls-3" d="M1064,212.83a91.16,91.16,0,0,1,35.63-37.25q22.86-13.15,52.43-13.16,29.94,0,52.82,12.15a90.27,90.27,0,0,1,36,34.41q13.14,22.26,13.56,52.22a117,117,0,0,1-1.22,16.59H1097v2.44q1.61,27.12,17,42.91t41.29,15.79q19.83,0,33.8-9.52t18.43-26.92h43.71a85.65,85.65,0,0,1-31,51.82q-24.9,20.25-62.15,20.24-32.38,0-56.47-13.15a91.88,91.88,0,0,1-37.24-37q-13.17-23.88-13.16-55.46Q1051.25,236.93,1064,212.83Zm145.94,33.39q-2.84-23.07-18-35.83t-38.26-12.74q-21.45,0-37,13.35t-18,35.22Z"/><path class="cls-3" d="M1290.7,212.83a91.14,91.14,0,0,1,35.62-37.25q22.88-13.15,52.43-13.16,30,0,52.83,12.15a90.31,90.31,0,0,1,36,34.41q13.14,22.26,13.56,52.22a118.41,118.41,0,0,1-1.21,16.59H1323.69v2.44q1.62,27.12,17,42.91t41.3,15.79q19.82,0,33.8-9.52t18.42-26.92h43.72a85.66,85.66,0,0,1-31,51.82q-24.9,20.25-62.14,20.24-32.38,0-56.47-13.15a92,92,0,0,1-37.25-37q-13.15-23.88-13.15-55.46Q1278,236.93,1290.7,212.83Zm145.94,33.39q-2.85-23.07-18-35.83t-38.25-12.74q-21.46,0-37,13.35t-18,35.22Z"/><path class="cls-3" d="M1556.06,88.74V266.05l94.73-101.2h50.61l-77.33,83.4,82.18,123.87h-51.81l-61.54-91.89-36.84,38.86v53h-43.72V88.74Z"/><path class="cls-3" d="M1766.57,89.55q7.68,7.29,7.69,18.62a25.22,25.22,0,0,1-7.69,18.83,27.93,27.93,0,0,1-38,0,25.19,25.19,0,0,1-7.69-18.83q0-11.33,7.69-18.62a28.5,28.5,0,0,1,38,0Zm2.84,75.3V372.12h-43.73V164.85Z"/><path class="cls-3" d="M1821.63,203.31h-36V164.85h36V107h44.12v57.89h49.8v38.46h-49.8V311.4q0,12.15,4.86,17.41t16.6,5.25H1920v38.06h-42.1q-29.14,0-42.71-13.76t-13.56-42.51Z"/></svg>