<svg width="16" height="15" viewBox="0 0 16 15" fill="none" xmlns="http://www.w3.org/2000/svg">
<path d="M9 1C9 0.447715 8.55228 0 8 0C7.44772 0 7 0.447715 7 1H9ZM8 9.53333L7.29628 10.2438L8 10.9408L8.70372 10.2438L8 9.53333ZM5.20372 5.35618C4.81133 4.96753 4.17817 4.97056 3.78952 5.36295C3.40087 5.75534 3.4039 6.3885 3.79628 6.77715L5.20372 5.35618ZM12.2037 6.77715C12.5961 6.3885 12.5991 5.75534 12.2105 5.36295C11.8218 4.97056 11.1887 4.96753 10.7963 5.35618L12.2037 6.77715ZM1 14H0V15H1V14ZM15 14V15H16V14H15ZM7 1V9.53333H9V1H7ZM3.79628 6.77715L7.29628 10.2438L8.70372 8.82285L5.20372 5.35618L3.79628 6.77715ZM8.70372 10.2438L12.2037 6.77715L10.7963 5.35618L7.29628 8.82285L8.70372 10.2438ZM0 8.8V14H2V8.8H0ZM1 15H15V13H1V15ZM16 14V8.8H14V14H16Z" fill="white"/>
</svg>
